HIERARCHY
ROOT Hips
{
	OFFSET 0.000000 0.000000 0.000000
	CHANNELS 6 Xposition Yposition Zposition Xrotation Yrotation Zrotation
	JOINT LeftUpLeg_virtual
	{
		OFFSET 0.000000 0.000000 0.000000
		CHANNELS 3 Xrotation Yrotation Zrotation
		JOINT LeftUpLeg
		{
			OFFSET 10.205400 -3.823500 0.155100
			CHANNELS 3 Xrotation Yrotation Zrotation
			JOINT LeftLeg
			{
				OFFSET 0.708757 -12.982077 0.567790
				CHANNELS 3 Xrotation Yrotation Zrotation
				JOINT LeftFoot
				{
					OFFSET -0.708756 -10.717838 -2.184338
					CHANNELS 3 Xrotation Yrotation Zrotation
					JOINT LeftToeBase
					{
						OFFSET 0.108149 -7.191104 7.560241
						CHANNELS 3 Xrotation Yrotation Zrotation
						JOINT LeftToe_End
						{
							OFFSET 0.070230 0.081724 4.490308
							CHANNELS 3 Xrotation Yrotation Zrotation
							End Site
							{
								OFFSET 0 0 0
							}
						}
					}
				}
			}
		}
	}
	JOINT RightUpLeg_virtual
	{
		OFFSET 0.000000 0.000000 0.000000
		CHANNELS 3 Xrotation Yrotation Zrotation
		JOINT RightUpLeg
		{
			OFFSET -10.205400 -3.823500 0.005500
			CHANNELS 3 Xrotation Yrotation Zrotation
			JOINT RightLeg
			{
				OFFSET -0.708756 -12.982134 0.610632
				CHANNELS 3 Xrotation Yrotation Zrotation
				JOINT RightFoot
				{
					OFFSET 0.708754 -10.717769 -1.945823
					CHANNELS 3 Xrotation Yrotation Zrotation
					JOINT RightToeBase
					{
						OFFSET -0.108140 -7.191069 7.372968
						CHANNELS 3 Xrotation Yrotation Zrotation
						JOINT RightToe_End
						{
							OFFSET -0.070227 0.081735 4.479403
							CHANNELS 3 Xrotation Yrotation Zrotation
							End Site
							{
								OFFSET 0 0 0
							}
						}
					}
				}
			}
		}
	}
	JOINT Spine_virtual
	{
		OFFSET 0.000000 0.000000 0.000000
		CHANNELS 3 Xrotation Yrotation Zrotation
		JOINT Spine
		{
			OFFSET 0.000000 6.876099 0.125700
			CHANNELS 3 Xrotation Yrotation Zrotation
			JOINT Spine1
			{
				OFFSET 0.000000 5.730043 0.104720
				CHANNELS 3 Xrotation Yrotation Zrotation
				JOINT Spine1_split
				{
					OFFSET 0.000000 5.730043 0.104720
					CHANNELS 3 Xrotation Yrotation Zrotation
					JOINT Spine2
					{
						OFFSET 0.000000 5.730043 0.104720
						CHANNELS 3 Xrotation Yrotation Zrotation
						JOINT Neck_virtual
						{
							OFFSET 0.000000 0.000000 0.000000
							CHANNELS 3 Xrotation Yrotation Zrotation
							JOINT Neck
							{
								OFFSET 0.000000 10.314075 0.188496
								CHANNELS 3 Xrotation Yrotation Zrotation
								JOINT Head
								{
									OFFSET 0.000000 7.643700 -2.377400
									CHANNELS 3 Xrotation Yrotation Zrotation
									JOINT HeadTop_End
									{
										OFFSET 0.000000 43.788605 -13.619600
										CHANNELS 3 Xrotation Yrotation Zrotation
										End Site
										{
											OFFSET 0 0 0
										}
									}
								}
							}
						}
						JOINT LeftShoulder_virtual
						{
							OFFSET 0.000000 0.000000 0.000000
							CHANNELS 3 Xrotation Yrotation Zrotation
							JOINT LeftShoulder
							{
								OFFSET 2.196100 4.412489 0.087492
								CHANNELS 3 Xrotation Yrotation Zrotation
								JOINT LeftShoulder_split
								{
									OFFSET 2.196100 4.412489 0.087492
									CHANNELS 3 Xrotation Yrotation Zrotation
									JOINT LeftArm
									{
										OFFSET 8.771219 -2.981674 -0.026999
										CHANNELS 3 Xrotation Yrotation Zrotation
										JOINT LeftForeArm
										{
											OFFSET 8.512804 0.000000 -0.000000
											CHANNELS 3 Xrotation Yrotation Zrotation
											JOINT LeftHand
											{
												OFFSET 18.484802 0.000000 -0.000000
												CHANNELS 3 Xrotation Yrotation Zrotation
												End Site
												{
													OFFSET 0 0 0
												}
											}
										}
									}
								}
							}
						}
						JOINT RightShoulder_virtual
						{
							OFFSET 0.000000 0.000000 0.000000
							CHANNELS 3 Xrotation Yrotation Zrotation
							JOINT RightShoulder
							{
								OFFSET -2.196100 4.412496 0.070690
								CHANNELS 3 Xrotation Yrotation Zrotation
								JOINT RightShoulder_split
								{
									OFFSET -2.196100 4.412496 0.070690
									CHANNELS 3 Xrotation Yrotation Zrotation
									JOINT RightArm
									{
										OFFSET -8.771282 -2.981682 -0.094208
										CHANNELS 3 Xrotation Yrotation Zrotation
										JOINT RightForeArm
										{
											OFFSET -8.494598 0.000000 0.000000
											CHANNELS 3 Xrotation Yrotation Zrotation
											JOINT RightHand
											{
												OFFSET -18.483803 0.000000 0.000001
												CHANNELS 3 Xrotation Yrotation Zrotation
												End Site
												{
													OFFSET 0 0 0
												}
											}
										}
									}
								}
							}
						}
					}
				}
			}
		}
	}
}
MOTION
Frames: 10
Frame Time: 0.03333333
7.758832 3.762962 1.464581 0.000000 0.000000 0.000000 -113.116177 72.205516 30.363435 -101.729534 19.732101 -16.470824 72.058345 25.860445 3.752550 24.480129 -3.134634 19.378976 -0.000015 0.000005 -0.000013 0.000000 0.000000 0.000000 -113.116177 72.205516 30.363435 -20.420220 -3.774231 19.255968 87.731785 -18.519062 -5.471867 17.753543 -3.900867 3.944873 -15.637001 0.000108 0.000029 0.000000 0.000000 0.000000 -113.116177 72.205516 30.363435 15.466212 -9.098288 -6.241430 10.269407 -4.988675 -4.175167 0.000000 0.000000 0.000000 0.000000 0.000000 0.000000 10.075502 -5.450797 -4.055233 -3.272619 7.228382 -14.282613 -28.199353 11.664151 -14.767919 0.000000 0.000000 0.000000 10.075502 -5.450797 -4.055233 4.010594 -4.908952 30.425897 0.000000 0.000000 0.000000 -98.272195 29.592935 -48.772267 0.000006 -29.022092 -0.000008 0.000000 0.000000 0.000000 10.075502 -5.450797 -4.055233 5.201619 10.649080 -16.868050 0.000000 0.000000 0.000000 -39.319531 45.122805 97.301243 179.999991 77.063535 179.999978 0.000000 0.000000 0.000000 
7.740904 3.748940 1.483292 0.000000 0.000000 0.000000 -113.129974 72.066023 30.292804 -101.518413 19.715695 -16.319996 72.614678 24.647890 3.528002 22.741620 -3.404013 18.448667 -0.000004 0.000001 -0.000020 0.000000 0.000000 0.000000 -113.129974 72.066023 30.292804 -20.464056 -3.875045 19.260240 87.816439 -18.536070 -5.498070 17.778349 -3.811664 3.783603 -15.554559 0.000102 0.000031 0.000000 0.000000 0.000000 -113.129974 72.066023 30.292804 15.367178 -9.072020 -6.079871 10.185742 -5.031186 -4.126522 0.000000 0.000000 0.000000 0.000000 0.000000 0.000000 9.990489 -5.493608 -4.003250 -3.062555 7.250389 -14.443441 -28.110480 11.751720 -14.847697 0.000000 0.000000 0.000000 9.990489 -5.493608 -4.003250 4.107879 -4.790354 29.995039 0.000000 0.000000 0.000000 -98.160248 29.449532 -48.783550 0.000003 -28.882999 -0.000004 0.000000 0.000000 0.000000 9.990489 -5.493608 -4.003250 5.169981 10.526238 -17.181283 0.000000 0.000000 0.000000 -39.744683 45.430009 97.916608 179.999991 77.336497 179.999991 0.000000 0.000000 0.000000 
7.724487 3.737507 1.500511 0.000000 0.000000 0.000000 -113.177280 71.938448 30.252974 -101.315010 19.685090 -16.162813 73.141654 23.564112 3.317581 21.135238 -3.626634 17.634087 -0.000003 0.000011 0.000006 0.000000 0.000000 0.000000 -113.177280 71.938448 30.252974 -20.483690 -3.983009 19.268951 87.887336 -18.532637 -5.516559 17.799333 -3.752161 3.628409 -15.488998 0.000104 0.000022 0.000000 0.000000 0.000000 -113.177280 71.938448 30.252974 15.275889 -9.048256 -5.928311 10.107542 -5.069763 -4.078112 0.000000 0.000000 0.000000 0.000000 0.000000 0.000000 9.911567 -5.531530 -3.951645 -2.814101 7.259184 -14.677866 -28.098662 11.824074 -14.824898 0.000000 0.000000 0.000000 9.911567 -5.531530 -3.951645 4.162935 -4.692304 29.537078 0.000000 0.000000 0.000000 -97.926096 29.197098 -48.839626 0.000004 -28.731481 0.000002 0.000000 0.000000 0.000000 9.911567 -5.531530 -3.951645 5.128159 10.398801 -17.376819 0.000000 0.000000 0.000000 -40.082897 45.719032 98.404646 179.999937 77.498332 -179.999964 0.000000 0.000000 0.000000 
7.707067 3.728693 1.515774 0.000000 0.000000 0.000000 -113.254789 71.821461 30.238429 -101.124277 19.652795 -16.009222 73.619522 22.667496 3.123044 19.696529 -3.806370 17.027641 -0.000019 0.000012 -0.000017 0.000000 0.000000 0.000000 -113.254789 71.821461 30.238429 -20.485836 -4.084041 19.278774 87.938952 -18.514003 -5.521559 17.823679 -3.706541 3.498650 -15.414842 0.000101 0.000020 0.000000 0.000000 0.000000 -113.254789 71.821461 30.238429 15.188893 -9.024572 -5.794839 10.031402 -5.101315 -4.032749 0.000000 0.000000 0.000000 0.000000 0.000000 0.000000 9.835711 -5.561058 -3.903022 -2.510895 7.244291 -14.963662 -28.169925 11.892853 -14.719186 0.000000 0.000000 0.000000 9.835711 -5.561058 -3.903022 4.162435 -4.631324 29.086183 0.000000 0.000000 0.000000 -97.556651 28.853499 -48.933026 0.000002 -28.548147 -0.000001 0.000000 0.000000 0.000000 9.835711 -5.561058 -3.903022 5.090767 10.292430 -17.484600 0.000000 0.000000 0.000000 -40.270450 45.947434 98.703077 179.999978 77.501187 180.000005 0.000000 0.000000 0.000000 
7.687201 3.723261 1.527870 0.000000 0.000000 0.000000 -113.345022 71.703674 30.230796 -100.953133 19.625159 -15.856545 74.043041 21.969561 2.944983 18.454111 -3.951019 16.662305 -0.000002 0.000020 0.000004 0.000000 0.000000 0.000000 -113.345022 71.703674 30.230796 -20.477126 -4.153424 19.291915 87.978861 -18.459396 -5.513879 17.845818 -3.680590 3.457125 -15.324137 0.000102 0.000025 0.000000 0.000000 0.000000 -113.345022 71.703674 30.230796 15.103034 -9.003866 -5.683440 9.955222 -5.128048 -3.994233 0.000000 0.000000 0.000000 0.000000 0.000000 0.000000 9.760485 -5.585015 -3.861228 -2.153506 7.209115 -15.294143 -28.323287 11.975979 -14.538160 0.000000 0.000000 0.000000 9.760485 -5.585015 -3.861228 4.109604 -4.603229 28.649030 0.000000 0.000000 0.000000 -97.059631 28.414487 -49.038013 0.000015 -28.322308 0.000017 0.000000 0.000000 0.000000 9.760485 -5.585015 -3.861228 5.069612 10.236393 -17.536263 0.000000 0.000000 0.000000 -40.326830 46.112438 98.818091 179.999964 77.371925 180.000005 0.000000 0.000000 0.000000 
7.665080 3.721992 1.536339 0.000000 0.000000 0.000000 -113.441669 71.575677 30.222354 -100.806482 19.599317 -15.697016 74.422479 21.425064 2.781341 17.406201 -4.069753 16.492171 0.000001 0.000004 0.000017 0.000000 0.000000 0.000000 -113.441669 71.575677 30.222354 -20.449523 -4.181009 19.302111 88.014002 -18.346033 -5.495535 17.851294 -3.679969 3.550819 -15.207375 0.000103 0.000036 0.000000 0.000000 0.000000 -113.441669 71.575677 30.222354 15.016557 -8.986277 -5.594551 9.879670 -5.151140 -3.965151 0.000000 0.000000 0.000000 0.000000 0.000000 0.000000 9.685976 -5.605247 -3.829123 -1.751987 7.157598 -15.662670 -28.547440 12.073068 -14.290019 0.000000 0.000000 0.000000 9.685976 -5.605247 -3.829123 4.011585 -4.600364 28.227521 0.000000 0.000000 0.000000 -96.446649 27.875378 -49.142934 0.000010 -28.047303 0.000014 0.000000 0.000000 0.000000 9.685976 -5.605247 -3.829123 5.071039 10.252152 -17.493834 0.000000 0.000000 0.000000 -40.284558 46.261404 98.746866 -179.999991 77.152369 179.999950 0.000000 0.000000 0.000000 
7.641663 3.725500 1.540531 0.000000 0.000000 0.000000 -113.588457 71.441286 30.254251 -100.680827 19.578657 -15.536157 74.759658 21.016764 2.630766 16.551927 -4.167242 16.499741 -0.000001 -0.000011 -0.000003 0.000000 0.000000 0.000000 -113.588457 71.441286 30.254251 -20.380803 -4.159452 19.293280 88.051780 -18.137615 -5.465534 17.804418 -3.711947 3.864696 -15.063900 0.000115 -0.000003 0.000000 0.000000 0.000000 -113.588457 71.441286 30.254251 14.924479 -8.958170 -5.532317 9.805899 -5.160648 -3.946991 0.000000 0.000000 0.000000 0.000000 0.000000 0.000000 9.613893 -5.610862 -3.809182 -1.294556 7.072527 -16.050217 -28.832998 12.149315 -13.989779 0.000000 0.000000 0.000000 9.613893 -5.610862 -3.809182 3.856147 -4.640279 27.842153 0.000000 0.000000 0.000000 -95.715532 27.241040 -49.292102 0.000008 -27.685164 0.000006 0.000000 0.000000 0.000000 9.613893 -5.610862 -3.809182 5.097554 10.353514 -17.262110 0.000000 0.000000 0.000000 -40.076244 46.428791 98.399161 179.999991 76.860214 179.999978 0.000000 0.000000 0.000000 
7.614429 3.737551 1.537815 0.000000 0.000000 0.000000 -113.801771 71.318356 30.340124 -100.565991 19.569467 -15.385754 75.040147 20.764243 2.490593 15.909471 -4.245769 16.728125 -0.000015 0.000019 -0.000002 0.000000 0.000000 0.000000 -113.801771 71.318356 30.340124 -20.224083 -4.042728 19.215069 88.117254 -17.720905 -5.411276 17.597523 -3.800422 4.675658 -14.854384 0.000077 0.000028 0.000000 0.000000 0.000000 -113.801771 71.318356 30.340124 14.821912 -8.904913 -5.497282 9.735080 -5.145139 -3.939321 0.000000 0.000000 0.000000 0.000000 0.000000 0.000000 9.546451 -5.588682 -3.802771 -0.768993 6.937129 -16.438836 -29.158142 12.171465 -13.651065 0.000000 0.000000 0.000000 9.546451 -5.588682 -3.802771 3.633388 -4.740743 27.493694 0.000000 0.000000 0.000000 -94.892132 26.521650 -49.545134 0.000015 -27.206995 0.000011 0.000000 0.000000 0.000000 9.546451 -5.588682 -3.802771 5.143237 10.527321 -16.824511 0.000000 0.000000 0.000000 -39.642165 46.580883 97.745205 179.999909 76.509880 -179.999937 0.000000 0.000000 0.000000 
7.580336 3.764048 1.523933 0.000000 0.000000 0.000000 -114.056783 71.215930 30.461752 -100.462896 19.565282 -15.245471 75.252682 20.685081 2.356275 15.488992 -4.307310 17.209978 -0.000024 -0.000002 -0.000007 0.000000 0.000000 0.000000 -114.056783 71.215930 30.461752 -19.924890 -3.734073 18.987834 88.248168 -16.916519 -5.311025 17.071807 -3.984152 6.410071 -14.539051 0.000116 -0.000006 0.000000 0.000000 0.000000 -114.056783 71.215930 30.461752 14.713254 -8.835727 -5.471746 9.667807 -5.112342 -3.936226 0.000000 0.000000 0.000000 0.000000 0.000000 0.000000 9.483615 -5.547200 -3.801530 -0.221068 6.780238 -16.840275 -29.454508 12.163444 -13.272448 0.000000 0.000000 0.000000 9.483615 -5.547200 -3.801530 3.375545 -4.868769 27.111492 0.000000 0.000000 0.000000 -94.059047 25.728510 -49.885362 0.000011 -26.672461 0.000000 0.000000 0.000000 0.000000 9.483615 -5.547200 -3.801530 5.190750 10.715369 -16.335352 0.000000 0.000000 0.000000 -39.093663 46.650247 96.987737 -179.999991 76.124425 179.999964 0.000000 0.000000 0.000000 
7.539206 3.806643 1.497982 0.000000 0.000000 0.000000 -114.304978 71.132185 30.581267 -100.386500 19.557734 -15.112391 75.397823 20.798618 2.224900 15.296101 -4.353471 17.950314 -0.000001 0.000020 -0.000002 0.000000 0.000000 0.000000 -114.304978 71.132185 30.581267 -19.437059 -3.185574 18.592975 88.417359 -15.662507 -5.159358 16.165962 -4.296713 9.174448 -14.060061 0.000088 0.000053 0.000000 0.000000 0.000000 -114.304978 71.132185 30.581267 14.612881 -8.773222 -5.434245 9.605979 -5.080974 -3.929804 0.000000 0.000000 0.000000 0.000000 0.000000 0.000000 9.425692 -5.507590 -3.798324 0.254507 6.660802 -17.286649 -29.622899 12.181799 -12.829422 0.000000 0.000000 0.000000 9.425692 -5.507590 -3.798324 3.134375 -4.962003 26.620285 0.000000 0.000000 0.000000 -93.294196 24.862787 -50.238384 -0.000009 -26.174648 -0.000012 0.000000 0.000000 0.000000 9.425692 -5.507590 -3.798324 5.223917 10.858579 -15.985684 0.000000 0.000000 0.000000 -38.580884 46.602797 96.365548 179.999923 75.683113 -179.999964 0.000000 0.000000 0.000000 
